<mxfile host="app.diagrams.net" agent="Mozilla/5.0 (Windows NT 10.0; Win64; x64; rv:132.0) Gecko/20100101 Firefox/132.0" version="24.8.3">
  <diagram name="Page-1" id="5eVMI1ttRYgfSZPBgMfe">
    <mxGraphModel dx="1434" dy="773" grid="1" gridSize="10" guides="1" tooltips="1" connect="1" arrows="1" fold="1" page="1" pageScale="1" pageWidth="1100" pageHeight="850" math="0" shadow="0">
      <root>
        <mxCell id="0" />
        <mxCell id="1" parent="0" />
        <mxCell id="KEs7gtYN-4KAZwmuKGye-3" value="" style="edgeStyle=orthogonalEdgeStyle;rounded=0;orthogonalLoop=1;jettySize=auto;html=1;" edge="1" parent="1" source="KEs7gtYN-4KAZwmuKGye-1" target="KEs7gtYN-4KAZwmuKGye-2">
          <mxGeometry relative="1" as="geometry" />
        </mxCell>
        <mxCell id="KEs7gtYN-4KAZwmuKGye-1" value="" style="ellipse;whiteSpace=wrap;html=1;aspect=fixed;fillColor=#000000;" vertex="1" parent="1">
          <mxGeometry x="680" y="190" width="40" height="40" as="geometry" />
        </mxCell>
        <mxCell id="KEs7gtYN-4KAZwmuKGye-6" value="" style="edgeStyle=orthogonalEdgeStyle;rounded=0;orthogonalLoop=1;jettySize=auto;html=1;" edge="1" parent="1" source="KEs7gtYN-4KAZwmuKGye-2" target="KEs7gtYN-4KAZwmuKGye-5">
          <mxGeometry relative="1" as="geometry" />
        </mxCell>
        <mxCell id="KEs7gtYN-4KAZwmuKGye-2" value="Esperando carga" style="rounded=1;whiteSpace=wrap;html=1;" vertex="1" parent="1">
          <mxGeometry x="640" y="290" width="120" height="60" as="geometry" />
        </mxCell>
        <mxCell id="KEs7gtYN-4KAZwmuKGye-4" value="&lt;div&gt;Se recibe la orden de realizar ruta&lt;br&gt;&lt;/div&gt;" style="text;html=1;align=center;verticalAlign=middle;resizable=0;points=[];autosize=1;strokeColor=none;fillColor=none;" vertex="1" parent="1">
          <mxGeometry x="735" y="190" width="210" height="30" as="geometry" />
        </mxCell>
        <mxCell id="KEs7gtYN-4KAZwmuKGye-9" value="" style="edgeStyle=orthogonalEdgeStyle;rounded=0;orthogonalLoop=1;jettySize=auto;html=1;" edge="1" parent="1" source="KEs7gtYN-4KAZwmuKGye-5" target="KEs7gtYN-4KAZwmuKGye-8">
          <mxGeometry relative="1" as="geometry" />
        </mxCell>
        <mxCell id="KEs7gtYN-4KAZwmuKGye-37" style="edgeStyle=orthogonalEdgeStyle;rounded=0;orthogonalLoop=1;jettySize=auto;html=1;entryX=0.5;entryY=0;entryDx=0;entryDy=0;" edge="1" parent="1" source="KEs7gtYN-4KAZwmuKGye-5" target="KEs7gtYN-4KAZwmuKGye-35">
          <mxGeometry relative="1" as="geometry" />
        </mxCell>
        <mxCell id="KEs7gtYN-4KAZwmuKGye-5" value="Recorriendo tramo" style="rounded=1;whiteSpace=wrap;html=1;" vertex="1" parent="1">
          <mxGeometry x="640" y="440" width="120" height="60" as="geometry" />
        </mxCell>
        <mxCell id="KEs7gtYN-4KAZwmuKGye-7" value="&lt;div&gt;Se recibe el mensaje&lt;/div&gt;&lt;div&gt;de confirmacion de carga /&lt;/div&gt;&lt;div&gt;Activar motores&lt;br&gt;&lt;/div&gt;" style="text;html=1;align=left;verticalAlign=middle;resizable=0;points=[];autosize=1;strokeColor=none;fillColor=none;" vertex="1" parent="1">
          <mxGeometry x="705" y="360" width="170" height="60" as="geometry" />
        </mxCell>
        <mxCell id="KEs7gtYN-4KAZwmuKGye-11" style="edgeStyle=orthogonalEdgeStyle;rounded=0;orthogonalLoop=1;jettySize=auto;html=1;entryX=0;entryY=0.75;entryDx=0;entryDy=0;" edge="1" parent="1" source="KEs7gtYN-4KAZwmuKGye-8" target="KEs7gtYN-4KAZwmuKGye-5">
          <mxGeometry relative="1" as="geometry">
            <Array as="points">
              <mxPoint x="545" y="485" />
              <mxPoint x="545" y="485" />
            </Array>
          </mxGeometry>
        </mxCell>
        <mxCell id="KEs7gtYN-4KAZwmuKGye-25" value="" style="edgeStyle=orthogonalEdgeStyle;rounded=0;orthogonalLoop=1;jettySize=auto;html=1;" edge="1" parent="1" source="KEs7gtYN-4KAZwmuKGye-8" target="KEs7gtYN-4KAZwmuKGye-24">
          <mxGeometry relative="1" as="geometry" />
        </mxCell>
        <mxCell id="KEs7gtYN-4KAZwmuKGye-31" style="edgeStyle=orthogonalEdgeStyle;rounded=0;orthogonalLoop=1;jettySize=auto;html=1;entryX=0;entryY=0.5;entryDx=0;entryDy=0;" edge="1" parent="1" source="KEs7gtYN-4KAZwmuKGye-8" target="KEs7gtYN-4KAZwmuKGye-24">
          <mxGeometry relative="1" as="geometry">
            <Array as="points">
              <mxPoint x="265" y="470" />
              <mxPoint x="265" y="310" />
            </Array>
          </mxGeometry>
        </mxCell>
        <mxCell id="KEs7gtYN-4KAZwmuKGye-33" style="edgeStyle=orthogonalEdgeStyle;rounded=0;orthogonalLoop=1;jettySize=auto;html=1;entryX=0.25;entryY=1;entryDx=0;entryDy=0;" edge="1" parent="1" source="KEs7gtYN-4KAZwmuKGye-8" target="KEs7gtYN-4KAZwmuKGye-5">
          <mxGeometry relative="1" as="geometry">
            <Array as="points">
              <mxPoint x="405" y="540" />
              <mxPoint x="670" y="540" />
            </Array>
          </mxGeometry>
        </mxCell>
        <mxCell id="KEs7gtYN-4KAZwmuKGye-8" value="Crusando interseccion" style="rounded=1;whiteSpace=wrap;html=1;" vertex="1" parent="1">
          <mxGeometry x="345" y="440" width="120" height="60" as="geometry" />
        </mxCell>
        <mxCell id="KEs7gtYN-4KAZwmuKGye-10" value="Se encuentra una interseccion" style="text;html=1;align=center;verticalAlign=middle;resizable=0;points=[];autosize=1;strokeColor=none;fillColor=none;" vertex="1" parent="1">
          <mxGeometry x="455" y="440" width="190" height="30" as="geometry" />
        </mxCell>
        <mxCell id="KEs7gtYN-4KAZwmuKGye-12" value="&lt;div&gt;Se recibe orden de continuacion /&lt;/div&gt;&lt;div&gt;Seleccionar nuevo tramo y&lt;/div&gt;&lt;div&gt;continuar recorrido&lt;br&gt;&lt;/div&gt;" style="text;html=1;align=center;verticalAlign=middle;resizable=0;points=[];autosize=1;strokeColor=none;fillColor=none;" vertex="1" parent="1">
          <mxGeometry x="440" y="355" width="210" height="60" as="geometry" />
        </mxCell>
        <mxCell id="KEs7gtYN-4KAZwmuKGye-24" value="Detenido" style="rounded=1;whiteSpace=wrap;html=1;" vertex="1" parent="1">
          <mxGeometry x="345" y="280" width="120" height="60" as="geometry" />
        </mxCell>
        <mxCell id="KEs7gtYN-4KAZwmuKGye-26" style="edgeStyle=orthogonalEdgeStyle;rounded=0;orthogonalLoop=1;jettySize=auto;html=1;entryX=0.083;entryY=0.033;entryDx=0;entryDy=0;entryPerimeter=0;" edge="1" parent="1" source="KEs7gtYN-4KAZwmuKGye-24" target="KEs7gtYN-4KAZwmuKGye-5">
          <mxGeometry relative="1" as="geometry">
            <Array as="points">
              <mxPoint x="445" y="410" />
              <mxPoint x="650" y="410" />
            </Array>
          </mxGeometry>
        </mxCell>
        <mxCell id="KEs7gtYN-4KAZwmuKGye-27" value="&lt;div&gt;No se detecta obstaculo&amp;nbsp;&lt;/div&gt;&lt;div&gt;/ Seleccionar siguiente&amp;nbsp;&lt;/div&gt;&lt;div&gt;tramo y confirmar cruce&lt;/div&gt;" style="text;html=1;align=center;verticalAlign=middle;resizable=0;points=[];autosize=1;strokeColor=none;fillColor=none;fontSize=10;" vertex="1" parent="1">
          <mxGeometry x="475" y="480" width="140" height="50" as="geometry" />
        </mxCell>
        <mxCell id="KEs7gtYN-4KAZwmuKGye-30" value="&lt;div style=&quot;font-size: 11px;&quot;&gt;Se detecta un robot[El robot&lt;/div&gt;&lt;div style=&quot;font-size: 11px;&quot;&gt;tiene mayor prioridad] /&lt;/div&gt;Detener y esperar orden" style="text;html=1;align=right;verticalAlign=middle;resizable=0;points=[];autosize=1;strokeColor=none;fillColor=none;fontSize=11;" vertex="1" parent="1">
          <mxGeometry x="245" y="365" width="160" height="50" as="geometry" />
        </mxCell>
        <mxCell id="KEs7gtYN-4KAZwmuKGye-32" value="&lt;div&gt;Se detecta&lt;/div&gt;&lt;div&gt;&amp;nbsp;objeto&amp;nbsp;&lt;/div&gt;&lt;div&gt;no identificado /&lt;/div&gt;&lt;div&gt;Detener&amp;nbsp;&lt;/div&gt;&lt;div&gt;y esperar orden&lt;br&gt;&lt;/div&gt;" style="text;html=1;align=right;verticalAlign=middle;resizable=0;points=[];autosize=1;strokeColor=none;fillColor=none;" vertex="1" parent="1">
          <mxGeometry x="155" y="345" width="110" height="90" as="geometry" />
        </mxCell>
        <mxCell id="KEs7gtYN-4KAZwmuKGye-34" value="&lt;div style=&quot;font-size: 10px;&quot;&gt;Se detecta un robot [El robot tiene menor prioridad] /&lt;/div&gt;&lt;div style=&quot;font-size: 10px;&quot;&gt;Seleccionar siguiente tramo y confirmar cruce&lt;br style=&quot;font-size: 10px;&quot;&gt;&lt;/div&gt;" style="text;html=1;align=center;verticalAlign=middle;resizable=0;points=[];autosize=1;strokeColor=none;fillColor=none;fontSize=10;" vertex="1" parent="1">
          <mxGeometry x="405" y="535" width="270" height="40" as="geometry" />
        </mxCell>
        <mxCell id="KEs7gtYN-4KAZwmuKGye-35" value="" style="ellipse;whiteSpace=wrap;html=1;aspect=fixed;fillColor=#FFFFFF;fontColor=#ffffff;" vertex="1" parent="1">
          <mxGeometry x="680" y="590" width="40" height="40" as="geometry" />
        </mxCell>
        <mxCell id="KEs7gtYN-4KAZwmuKGye-36" value="" style="ellipse;whiteSpace=wrap;html=1;aspect=fixed;fillColor=#000000;" vertex="1" parent="1">
          <mxGeometry x="690" y="600" width="20" height="20" as="geometry" />
        </mxCell>
        <mxCell id="KEs7gtYN-4KAZwmuKGye-38" value="&lt;div&gt;Se llega al destino / Detener y enviar&lt;/div&gt;&lt;div&gt;mensaje para retiro de carga&lt;br&gt;&lt;/div&gt;" style="text;html=1;align=center;verticalAlign=middle;resizable=0;points=[];autosize=1;strokeColor=none;fillColor=none;fontSize=10;" vertex="1" parent="1">
          <mxGeometry x="700" y="560" width="200" height="40" as="geometry" />
        </mxCell>
      </root>
    </mxGraphModel>
  </diagram>
</mxfile>
